Coordinates
version=1
nRows=13
nColumns=36
inDegrees=yes

Units are S.I. units (second, meters, Newtons, ...)
If the header above contains a line with 'inDegrees', this indicates whether rotational values are in degrees (yes) or radians (no).

endheader
time	pelvis_tilt	pelvis_list	pelvis_rotation	pelvis_tx	pelvis_ty	pelvis_tz	hip_flexion_r	hip_adduction_r	hip_rotation_r	knee_angle_r	knee_angle_r_beta	ankle_angle_r	subtalar_angle_r	mtp_angle_r	hip_flexion_l	hip_adduction_l	hip_rotation_l	knee_angle_l	knee_angle_l_beta	ankle_angle_l	subtalar_angle_l	mtp_angle_l	lumbar_extension	lumbar_bending	lumbar_rotation	arm_flex_r	arm_add_r	arm_rot_r	elbow_flex_r	pro_sup_r	arm_flex_l	arm_add_l	arm_rot_l	elbow_flex_l	pro_sup_l
      7.66666670	      4.83991751	     -1.37877140	     -4.84505922	     -0.17053085	      0.71373037	     -0.01642962	     65.07868881	     -1.81845947	      2.83075706	     84.39370505	      1.47294802	     13.62483317	    -10.13656334	     -7.49999987	     67.39858469	    -11.91928534	      5.64300497	     87.90397342	      1.53421376	     15.45070882	      0.31758496	     -7.49999987	    -29.89411780	     19.17741772	      9.85723373	      2.07988316	    -19.06573564	     -8.97053186	     52.99638404	     61.79913456	      8.37587375	     -6.11404526	     -4.75102315	     41.65817438	     54.62725275
      7.68333330	      4.61154020	     -1.47630919	     -5.06302962	     -0.17012246	      0.71337062	     -0.01619045	     65.42312029	     -1.48344126	      2.84191779	     84.59700301	      1.47649624	     14.31339118	     -9.77562127	     -7.49999987	     67.80101773	    -12.40917617	      5.54116490	     88.20735173	      1.53950871	     16.13266951	      1.27848650	     -7.49999987	    -29.54613353	     18.70334793	     10.22599969	      1.94650147	    -19.03476977	     -8.28361832	     52.43222245	     62.07690348	      8.37270187	     -6.39469821	     -4.10145101	     41.84949306	     55.00937388
      7.70000000	      4.24779049	     -1.55637779	     -4.97479215	     -0.16931516	      0.71287994	     -0.01626132	     65.83524108	     -1.55609411	      2.62364073	     84.82106354	      1.48040683	     15.07595068	     -9.33733987	     -7.49999987	     68.25762198	    -12.46155785	      5.62579315	     88.38265558	      1.54256834	     16.56235610	      1.68244591	     -7.49999987	    -29.43078745	     18.37425178	     10.16098419	      1.96477221	    -18.92799761	     -7.52813136	     52.64466007	     62.65350875	      8.26922382	     -6.73374018	     -3.15771891	     42.11403032	     55.50782828
      7.71666670	      4.26667729	     -1.68309868	     -5.15665178	     -0.16932922	      0.71289747	     -0.01668115	     65.88268372	     -1.38348623	      2.54116634	     84.98214439	      1.48321822	     15.46839150	     -9.31191000	     -7.49999987	     68.33739552	    -12.68170268	      5.70500002	     88.60563780	      1.54646012	     16.72857428	      1.71729368	     -7.49999987	    -29.64860908	     17.90316771	     10.19782657	      2.19361028	    -18.72232699	     -7.16662773	     52.82519686	     62.81996847	      8.32482756	     -7.00747024	     -2.83801130	     42.14636309	     55.68756073
      7.73333330	      4.10977386	     -1.80098156	     -5.50674395	     -0.15650768	      0.71446724	     -0.02271633	     65.72043672	     -1.16243204	      2.53705028	     84.86338559	      1.48114549	     16.29947504	     -8.76930735	     -7.49999987	     67.99454030	    -12.87132531	      5.73110557	     88.70725295	      1.54823363	     17.41286363	      2.17490056	     -7.49999987	    -29.60416771	     17.48797801	     10.02236340	      2.56549686	    -18.70381464	     -6.09408697	     53.05659988	     63.97362314	      8.50674453	     -7.46153136	     -1.53296623	     41.62667046	     56.17095846
      7.75000000	      4.27303576	     -1.97234445	     -5.68493236	     -0.15692804	      0.71450521	     -0.02314037	     65.34855046	     -1.06731809	      2.42072825	     84.87900443	      1.48141809	     16.65867146	     -8.41125413	     -7.49999987	     67.60410271	    -13.05845215	      5.78314004	     88.91559694	      1.55186992	     18.00791289	      2.72848609	     -7.49999987	    -29.44172968	     17.04210188	      9.58318597	      2.48016405	    -18.23209250	     -5.84113624	     53.28354973	     64.07724447	      8.36832722	     -7.61636482	     -1.36420234	     41.30986337	     56.24179451
      7.76666670	      4.14439886	     -2.05966834	     -5.70094613	     -0.16678241	      0.71285914	     -0.03046791	     65.49032992	     -1.18950931	      2.29697840	     84.79375151	      1.47993015	     16.75475844	     -8.23274764	     -7.49999987	     67.78417957	    -13.00668801	      5.93518567	     89.04242266	      1.55408345	     18.15525394	      2.79337563	     -7.49999987	    -29.66966233	     16.51952647	      9.42557335	      2.73545083	    -17.99591258	     -5.76842788	     53.59464584	     64.10241601	      8.69387919	     -7.60725994	     -1.29731703	     41.48585630	     56.27408910
      7.78333330	      4.26111670	     -2.03030977	     -5.67845647	     -0.16723708	      0.71291287	     -0.03068860	     65.52427934	     -1.45140104	      2.26706527	     84.78693528	      1.47981118	     17.39547477	     -7.43120151	     -7.49999987	     67.77182816	    -12.94157983	      5.82605939	     89.08571088	      1.55483897	     18.51642787	      3.70731792	     -7.49999987	    -29.74329483	     15.97243898	      8.91645089	      2.82955255	    -17.69499032	     -5.69656978	     54.53777181	     64.26989034	      8.58544724	     -7.80672788	     -1.11608564	     41.42591433	     56.39354342
      7.80000000	      4.29520042	     -2.10493171	     -5.68760707	     -0.16705782	      0.71266184	     -0.03066711	     65.49913796	     -1.54827886	      2.16552308	     84.59418056	      1.47644698	     17.45614451	     -7.37357139	     -7.49999987	     67.82573559	    -12.96648934	      5.77496569	     89.03777475	      1.55400233	     18.58691912	      3.91506530	     -7.49999987	    -29.90065796	     15.40074480	      8.80569438	      2.88632444	    -17.46346053	     -5.68017246	     54.92972406	     64.21927871	      8.16493634	     -7.72802183	     -1.08515337	     41.57232460	     56.47102283
      7.81666670	      4.00127532	     -2.14795027	     -5.68116461	     -0.16664054	      0.71231848	     -0.03078456	     65.81793620	     -1.67116471	      2.04274501	     84.47440484	      1.47435650	     18.20130629	     -6.06289946	     -7.49999987	     68.22073965	    -13.05440220	      5.69726831	     88.96566172	      1.55274372	     19.01105349	      4.69224826	     -7.49999987	    -29.24610819	     14.88456398	      8.80732213	      2.87653227	    -16.91697633	     -6.27030438	     54.67867447	     64.45737747	      8.20349450	     -7.38215774	     -1.12494471	     40.27745435	     56.87028758
      7.83333330	      3.79140414	     -2.25000387	     -5.72771036	     -0.16664476	      0.71161824	     -0.03068036	     66.07732263	     -1.63669970	      1.89000804	     84.39783613	      1.47302012	     18.63316804	     -5.55262817	     -7.49999987	     68.67479507	    -13.37896514	      5.52836820	     89.03392705	      1.55393517	     19.25447278	      5.21145237	     -7.49999987	    -29.08926906	     14.31892805	      8.77889047	      2.97554689	    -16.45777399	     -6.75491748	     54.79815241	     64.77237461	      8.37771959	     -7.33714723	     -1.02198977	     39.67961790	     57.27743064
      7.85000000	      3.63507458	     -2.37489236	     -5.83584037	     -0.16666280	      0.71131831	     -0.03088721	     66.22729610	     -1.54518394	      1.81728385	     84.34711037	      1.47213479	     19.03630026	     -5.15359742	     -7.49999987	     68.97344899	    -13.76584152	      5.39516743	     89.11365422	      1.55532667	     19.36458120	      5.44647041	     -7.49999987	    -28.65212138	     13.87315947	      8.79309582	      2.74154686	    -15.79337627	     -7.35179889	     54.52423258	     65.17298084	      8.61511062	     -7.16473412	     -1.00053737	     38.70400235	     57.74595323
      7.86666670	      3.60735063	     -2.49408515	     -5.78803325	     -0.16679799	      0.71094985	     -0.03063940	     66.18186924	     -1.55014354	      1.64898684	     84.42913627	      1.47356641	     19.39858135	     -4.79505226	     -7.49999987	     69.14394408	    -14.07892875	      5.28918045	     89.21640246	      1.55711997	     19.51239244	      5.53766074	     -7.49999987	    -28.50126405	     13.40747456	      8.86061097	      2.51376656	    -15.11410795	     -8.09359150	     54.04193995	     65.50665016	      8.76657669	     -6.90401890	     -0.98745401	     37.76233636	     58.34418713
